<svg xmlns="http://www.w3.org/2000/svg" xmlns:xlink="http://www.w3.org/1999/xlink" xmlns:lucid="lucid" width="1026" height="123"><g transform="translate(-74 -116)" lucid:page-tab-id="0_0"><path d="M60 149.57h104.82v57.1H60z" fill="none"/><use xlink:href="#a" transform="matrix(1,0,0,1,60,149.56521846779265) translate(32.55 32.6)"/><path d="M212.4 140h74.4v80h-74.4z" stroke="#000" stroke-width="2" fill="#fff"/><use xlink:href="#b" transform="matrix(1,0,0,1,217.40626285357922,145) translate(25.525 38.6)"/><path d="M296.1 166.67h50.38v-13.34l24 26.67-24 26.67v-13.34h-50.4zM379.78 140h74.4v80h-74.4z" stroke="#000" stroke-width="2" fill="#fff"/><use xlink:href="#c" transform="matrix(1,0,0,1,384.78099795170635,145) translate(15.075 38.6)"/><path d="M463.47 166.67h50.4v-13.34l24 26.67-24 26.67v-13.34h-50.4zM547.16 140h74.38v80h-74.38z" stroke="#000" stroke-width="2" fill="#fff"/><use xlink:href="#d" transform="matrix(1,0,0,1,552.1557330498334,145) translate(8.074999999999996 38.6)"/><path d="M630.84 166.67h50.4v-13.34l24 26.67-24 26.67v-13.34h-50.4zM714.53 140h74.4v80h-74.4z" stroke="#000" stroke-width="2" fill="#fff"/><use xlink:href="#e" transform="matrix(1,0,0,1,719.5304681479606,145) translate(3.542499999999997 38.6)"/><path d="M798.22 166.67h50.4v-13.34l24 26.67-24 26.67v-13.34h-50.4zM881.9 140h74.4v80h-74.4z" stroke="#000" stroke-width="2" fill="#fff"/><use xlink:href="#f" transform="matrix(1,0,0,1,886.9052032460877,145) translate(18 38.6)"/><path d="M150.22 170.12h38.5v-8l14.4 16-14.4 16v-8h-38.5z" stroke="#000" stroke-width="2" fill="#fff"/><path d="M1010.72 149.57h104.82v57.1h-104.82z" fill="none"/><use xlink:href="#g" transform="matrix(1,0,0,1,1010.7247825628037,149.56521846779265) translate(30.049999999999997 32.6)"/><path d="M967.68 170.12h38.5v-8l14.4 16-14.4 16v-8h-38.5z" stroke="#000" stroke-width="2" fill="#fff"/><defs><path d="M101-234c-31-9-42 10-38 44h38v23H63V0H32v-167H5v-23h27c-7-52 17-82 69-68v24" id="h"/><path d="M87 75C49 33 22-17 22-94c0-76 28-126 65-167h31c-38 41-64 92-64 168S80 34 118 75H87" id="i"/><path d="M141 0L90-78 38 0H4l68-98-65-92h35l48 74 47-74h35l-64 92 68 98h-35" id="j"/><path d="M68-38c1 34 0 65-14 84H32c9-13 17-26 17-46H33v-38h35" id="k"/><path d="M179-190L93 31C79 59 56 82 12 73V49c39 6 53-20 64-50L1-190h34L92-34l54-156h33" id="l"/><path d="M33-261c38 41 65 92 65 168S71 34 33 75H2C39 34 66-17 66-93S39-220 2-261h31" id="m"/><g id="a"><use transform="matrix(0.05,0,0,0.05,0,0)" xlink:href="#h"/><use transform="matrix(0.05,0,0,0.05,5,0)" xlink:href="#i"/><use transform="matrix(0.05,0,0,0.05,10.95,0)" xlink:href="#j"/><use transform="matrix(0.05,0,0,0.05,19.95,0)" xlink:href="#k"/><use transform="matrix(0.05,0,0,0.05,24.95,0)" xlink:href="#l"/><use transform="matrix(0.05,0,0,0.05,33.95,0)" xlink:href="#m"/></g><path d="M24 0v-261h32V0H24" id="n"/><path d="M117-194c89-4 53 116 60 194h-32v-121c0-31-8-49-39-48C34-167 62-67 57 0H25l-1-190h30c1 10-1 24 2 32 11-22 29-35 61-36" id="o"/><g id="b"><use transform="matrix(0.05,0,0,0.05,0,0)" xlink:href="#n"/><use transform="matrix(0.05,0,0,0.05,3.95,0)" xlink:href="#o"/></g><path d="M30-248c118-7 216 8 213 122C240-48 200 0 122 0H30v-248zM63-27c89 8 146-16 146-99s-60-101-146-95v194" id="p"/><path d="M63-220v92h138v28H63V0H30v-248h175v28H63" id="q"/><path d="M127-220V0H93v-220H8v-28h204v28h-85" id="r"/><g id="c"><use transform="matrix(0.05,0,0,0.05,0,0)" xlink:href="#p"/><use transform="matrix(0.05,0,0,0.05,12.950000000000001,0)" xlink:href="#q"/><use transform="matrix(0.05,0,0,0.05,23.900000000000002,0)" xlink:href="#r"/></g><path d="M197 0v-115H63V0H30v-248h33v105h134v-105h34V0h-34" id="s"/><path d="M84 4C-5 8 30-112 23-190h32v120c0 31 7 50 39 49 72-2 45-101 50-169h31l1 190h-30c-1-10 1-25-2-33-11 22-28 36-60 37" id="t"/><path d="M108 0H70L1-190h34L89-25l56-165h34" id="u"/><g id="d"><use transform="matrix(0.05,0,0,0.05,0,0)" xlink:href="#s"/><use transform="matrix(0.05,0,0,0.05,12.950000000000001,0)" xlink:href="#i"/><use transform="matrix(0.05,0,0,0.05,18.900000000000002,0)" xlink:href="#t"/><use transform="matrix(0.05,0,0,0.05,28.900000000000002,0)" xlink:href="#k"/><use transform="matrix(0.05,0,0,0.05,33.900000000000006,0)" xlink:href="#u"/><use transform="matrix(0.05,0,0,0.05,42.900000000000006,0)" xlink:href="#m"/></g><path d="M16-82v-28h88v28H16" id="v"/><path d="M27 0v-27h64v-190l-56 39v-29l58-41h29v221h61V0H27" id="w"/><g id="e"><use transform="matrix(0.05,0,0,0.05,0,0)" xlink:href="#i"/><use transform="matrix(0.05,0,0,0.05,5.95,0)" xlink:href="#p"/><use transform="matrix(0.05,0,0,0.05,18.900000000000002,0)" xlink:href="#q"/><use transform="matrix(0.05,0,0,0.05,29.85,0)" xlink:href="#r"/><use transform="matrix(0.05,0,0,0.05,40.800000000000004,0)" xlink:href="#m"/><use transform="matrix(0.034999999999999996,0,0,0.034999999999999996,46.75000000000001,-5.039999999999999)" xlink:href="#v"/><use transform="matrix(0.034999999999999996,0,0,0.034999999999999996,50.915000000000006,-5.039999999999999)" xlink:href="#w"/></g><path d="M100-194c63 0 86 42 84 106H49c0 40 14 67 53 68 26 1 43-12 49-29l28 8c-11 28-37 45-77 45C44 4 14-33 15-96c1-61 26-98 85-98zm52 81c6-60-76-77-97-28-3 7-6 17-6 28h103" id="x"/><path d="M115-194c55 1 70 41 70 98S169 2 115 4C84 4 66-9 55-30l1 105H24l-1-265h31l2 30c10-21 28-34 59-34zm-8 174c40 0 45-34 45-75s-6-73-45-74c-42 0-51 32-51 76 0 43 10 73 51 73" id="y"/><g id="f"><use transform="matrix(0.05,0,0,0.05,0,0)" xlink:href="#x"/><use transform="matrix(0.05,0,0,0.05,10,0)" xlink:href="#j"/><use transform="matrix(0.05,0,0,0.05,19,0)" xlink:href="#y"/></g><path d="M177-190C167-65 218 103 67 71c-23-6-38-20-44-43l32-5c15 47 100 32 89-28v-30C133-14 115 1 83 1 29 1 15-40 15-95c0-56 16-97 71-98 29-1 48 16 59 35 1-10 0-23 2-32h30zM94-22c36 0 50-32 50-73 0-42-14-75-50-75-39 0-46 34-46 75s6 73 46 73" id="z"/><g id="g"><use transform="matrix(0.05,0,0,0.05,0,0)" xlink:href="#z"/><use transform="matrix(0.05,0,0,0.05,10,0)" xlink:href="#i"/><use transform="matrix(0.05,0,0,0.05,15.949999999999998,0)" xlink:href="#j"/><use transform="matrix(0.05,0,0,0.05,24.95,0)" xlink:href="#k"/><use transform="matrix(0.05,0,0,0.05,29.950000000000003,0)" xlink:href="#l"/><use transform="matrix(0.05,0,0,0.05,38.95,0)" xlink:href="#m"/></g></defs></g></svg>